<svg width="59" height="59" viewBox="0 0 59 59" fill="none" xmlns="http://www.w3.org/2000/svg">
<path d="M44.2513 36.875H39.3346V41.7917H44.2513M44.2513 27.0417H39.3346V31.9583H44.2513M49.168 46.7083H29.5013V41.7917H34.418V36.875H29.5013V31.9583H34.418V27.0417H29.5013V22.125H49.168M24.5846 17.2083H19.668V12.2917H24.5846M24.5846 27.0417H19.668V22.125H24.5846M24.5846 36.875H19.668V31.9583H24.5846M24.5846 46.7083H19.668V41.7917H24.5846M14.7513 17.2083H9.83464V12.2917H14.7513M14.7513 27.0417H9.83464V22.125H14.7513M14.7513 36.875H9.83464V31.9583H14.7513M14.7513 46.7083H9.83464V41.7917H14.7513M29.5013 17.2083V7.375H4.91797V51.625H54.0846V17.2083H29.5013Z" fill="#D81B1B"/>
</svg>
