<svg width="51" height="48" viewBox="0 0 51 48" fill="none" xmlns="http://www.w3.org/2000/svg">
<path d="M14.3773 47.6243C10.6489 47.6243 7.47352 46.3132 4.8513 43.691C2.22908 41.0688 0.917969 37.8934 0.917969 34.165C0.917969 30.6414 2.09633 27.5988 4.45305 25.0372C6.80977 22.4756 9.74912 21.0522 13.2711 20.7671L3.3763 0.916016H20.5846L25.5013 10.7493L30.418 0.916016H47.6263L37.793 20.6441C41.2756 20.9719 44.1953 22.4166 46.552 24.9782C48.9087 27.5398 50.0863 30.5815 50.0846 34.1035C50.0846 37.873 48.7735 41.0688 46.1513 43.691C43.5291 46.3132 40.3332 47.6243 36.5638 47.6243C36.1951 47.6243 35.8165 47.6145 35.4281 47.5948C35.0396 47.5752 34.6602 47.5236 34.2898 47.44C36.5433 45.965 38.3051 44.0499 39.5753 41.6948C40.8454 39.3398 41.4805 36.8093 41.4805 34.1035C41.4805 29.6375 39.9334 25.8583 36.8391 22.7657C33.7449 19.6731 29.9656 18.126 25.5013 18.1243C21.037 18.1227 17.2577 19.6698 14.1635 22.7657C11.0692 25.8615 9.52214 29.6408 9.52214 34.1035C9.52214 36.8896 10.0957 39.5118 11.243 41.9702C12.3902 44.4285 14.193 46.2518 16.6513 47.44C16.2826 47.5219 15.904 47.5735 15.5156 47.5948C15.1271 47.6162 14.7477 47.626 14.3773 47.6243ZM25.5013 45.166C22.4284 45.166 19.8168 44.0909 17.6666 41.9407C15.5164 39.7905 14.4404 37.1781 14.4388 34.1035C14.4372 31.029 15.5131 28.4174 17.6666 26.2688C19.8201 24.1202 22.4317 23.0443 25.5013 23.041C28.5709 23.0377 31.1833 24.1137 33.3385 26.2688C35.4936 28.4239 36.5687 31.0355 36.5638 34.1035C36.5589 37.1715 35.4838 39.7839 33.3385 41.9407C31.1932 44.0975 28.5808 45.1726 25.5013 45.166ZM20.9534 40.8639L25.5013 37.4223L30.0492 40.8639L28.3284 35.2712L32.8763 32.0139H27.2836L25.5013 26.1139L23.719 32.0139H18.1263L22.6742 35.2712L20.9534 40.8639Z" fill="#D81B1B"/>
</svg>
