<svg width="41" height="41" viewBox="0 0 41 41" fill="none" xmlns="http://www.w3.org/2000/svg">
<path d="M20.4987 20.5007C17.7945 20.5007 15.4796 19.5378 13.5539 17.6121C11.6282 15.6864 10.6654 13.3715 10.6654 10.6673C10.6654 7.96315 11.6282 5.64822 13.5539 3.72253C15.4796 1.79683 17.7945 0.833984 20.4987 0.833984C23.2029 0.833984 25.5178 1.79683 27.4435 3.72253C29.3692 5.64822 30.332 7.96315 30.332 10.6673C30.332 13.3715 29.3692 15.6864 27.4435 17.6121C25.5178 19.5378 23.2029 20.5007 20.4987 20.5007ZM0.832031 40.1673V33.284C0.832031 31.8909 1.19095 30.611 1.90878 29.4441C2.62662 28.2772 3.57881 27.3856 4.76536 26.7694C7.30564 25.4993 9.88689 24.5471 12.5091 23.9128C15.1313 23.2786 17.7945 22.9606 20.4987 22.959C23.2029 22.9573 25.8661 23.2753 28.4883 23.9128C31.1105 24.5503 33.6918 25.5025 36.232 26.7694C37.4202 27.384 38.3732 28.2755 39.0911 29.4441C39.8089 30.6126 40.167 31.8926 40.1654 33.284V40.1673H0.832031Z" fill="#D81B1B"/>
</svg>
