<svg width="123" height="48" viewBox="0 0 123 48" fill="none" xmlns="http://www.w3.org/2000/svg">
<path d="M60.1762 19.7363L58.0935 16.7507C58.0061 16.7604 57.875 16.7652 57.7003 16.7652H55.3991V19.7363H53.5058V9.54135H57.7003C58.5838 9.54135 59.3509 9.687 60.0014 9.97828C60.6617 10.2696 61.1666 10.6871 61.5161 11.2308C61.8656 11.7745 62.0404 12.4202 62.0404 13.1679C62.0404 13.9349 61.8511 14.5951 61.4724 15.1486C61.1034 15.702 60.5694 16.1147 59.8703 16.3866L62.2152 19.7363H60.1762ZM60.1325 13.1679C60.1325 12.5173 59.9189 12.0173 59.4917 11.6677C59.0644 11.3182 58.4382 11.1434 57.6129 11.1434H55.3991V15.2068H57.6129C58.4382 15.2068 59.0644 15.0321 59.4917 14.6825C59.9189 14.3233 60.1325 13.8184 60.1325 13.1679ZM71.5865 11.959V19.7363H69.8533V18.7314C69.5523 19.1004 69.1785 19.3771 68.7319 19.5616C68.295 19.746 67.8095 19.8383 67.2755 19.8383C66.5181 19.8383 65.8385 19.6732 65.2365 19.3431C64.6442 19.013 64.1781 18.5469 63.8383 17.9449C63.5082 17.3429 63.3431 16.6439 63.3431 15.8477C63.3431 15.0515 63.5082 14.3573 63.8383 13.765C64.1781 13.163 64.6442 12.6969 65.2365 12.3668C65.8385 12.0367 66.5181 11.8716 67.2755 11.8716C67.7804 11.8716 68.2416 11.959 68.6591 12.1338C69.0863 12.3086 69.4552 12.5659 69.7659 12.9057V11.959H71.5865ZM67.4794 18.2799C68.1493 18.2799 68.7028 18.0566 69.1397 17.6099C69.5766 17.1633 69.7951 16.5759 69.7951 15.8477C69.7951 15.1195 69.5766 14.532 69.1397 14.0854C68.7028 13.6388 68.1493 13.4154 67.4794 13.4154C66.8094 13.4154 66.256 13.6388 65.819 14.0854C65.3918 14.532 65.1782 15.1195 65.1782 15.8477C65.1782 16.5759 65.3918 17.1633 65.819 17.6099C66.256 18.0566 66.8094 18.2799 67.4794 18.2799ZM76.3715 19.8383C75.7404 19.8383 75.1238 19.7557 74.5219 19.5907C73.9199 19.4256 73.4392 19.2169 73.08 18.9644L73.7791 17.5808C74.1286 17.8138 74.5461 18.0032 75.0316 18.1488C75.5268 18.2848 76.0123 18.3527 76.488 18.3527C77.5755 18.3527 78.1192 18.0663 78.1192 17.4934C78.1192 17.2216 77.9784 17.0322 77.6969 16.9254C77.425 16.8186 76.9832 16.7167 76.3715 16.6196C75.7307 16.5225 75.2064 16.4108 74.7986 16.2846C74.4005 16.1584 74.0509 15.9399 73.7499 15.6292C73.4587 15.3088 73.313 14.867 73.313 14.3039C73.313 13.5659 73.6189 12.9785 74.2306 12.5416C74.852 12.095 75.687 11.8716 76.7356 11.8716C77.2696 11.8716 77.8037 11.9347 78.3377 12.061C78.8717 12.1775 79.3086 12.3377 79.6485 12.5416L78.9494 13.9252C78.2891 13.5368 77.5464 13.3426 76.7211 13.3426C76.187 13.3426 75.7792 13.4252 75.4977 13.5902C75.2258 13.7456 75.0899 13.9543 75.0899 14.2165C75.0899 14.5078 75.2355 14.7165 75.5268 14.8427C75.8278 14.9593 76.289 15.0709 76.9104 15.1777C77.5318 15.2748 78.0415 15.3865 78.4396 15.5127C78.8377 15.6389 79.1776 15.8525 79.4591 16.1535C79.7504 16.4545 79.8961 16.8817 79.8961 17.4352C79.8961 18.1634 79.5805 18.746 78.9494 19.1829C78.3183 19.6198 77.459 19.8383 76.3715 19.8383ZM85.8768 11.8716C86.8575 11.8716 87.644 12.1581 88.2363 12.7309C88.8285 13.3038 89.1247 14.1534 89.1247 15.2797V19.7363H87.3041V15.5127C87.3041 14.833 87.1439 14.3233 86.8235 13.9834C86.5031 13.6339 86.0468 13.4591 85.4545 13.4591C84.7845 13.4591 84.2554 13.663 83.867 14.0708C83.4786 14.4689 83.2844 15.0466 83.2844 15.804V19.7363H81.4639V8.92965H83.2844V12.862C83.5854 12.5416 83.9544 12.2989 84.3913 12.1338C84.8379 11.959 85.3331 11.8716 85.8768 11.8716ZM99.1078 11.959V19.7363H97.3746V18.7314C97.0736 19.1004 96.6998 19.3771 96.2532 19.5616C95.8163 19.746 95.3308 19.8383 94.7968 19.8383C94.0394 19.8383 93.3598 19.6732 92.7578 19.3431C92.1655 19.013 91.6994 18.5469 91.3596 17.9449C91.0295 17.3429 90.8644 16.6439 90.8644 15.8477C90.8644 15.0515 91.0295 14.3573 91.3596 13.765C91.6994 13.163 92.1655 12.6969 92.7578 12.3668C93.3598 12.0367 94.0394 11.8716 94.7968 11.8716C95.3017 11.8716 95.7629 11.959 96.1804 12.1338C96.6076 12.3086 96.9766 12.5659 97.2873 12.9057V11.959H99.1078ZM95.0007 18.2799C95.6706 18.2799 96.2241 18.0566 96.661 17.6099C97.0979 17.1633 97.3164 16.5759 97.3164 15.8477C97.3164 15.1195 97.0979 14.532 96.661 14.0854C96.2241 13.6388 95.6706 13.4154 95.0007 13.4154C94.3307 13.4154 93.7773 13.6388 93.3403 14.0854C92.9131 14.532 92.6995 15.1195 92.6995 15.8477C92.6995 16.5759 92.9131 17.1633 93.3403 17.6099C93.7773 18.0566 94.3307 18.2799 95.0007 18.2799ZM109.107 8.92965V19.7363H107.359V18.7314C107.058 19.1004 106.684 19.3771 106.238 19.5616C105.801 19.746 105.315 19.8383 104.781 19.8383C104.034 19.8383 103.359 19.6732 102.757 19.3431C102.165 19.013 101.698 18.5469 101.359 17.9449C101.019 17.3332 100.849 16.6341 100.849 15.8477C100.849 15.0612 101.019 14.367 101.359 13.765C101.698 13.163 102.165 12.6969 102.757 12.3668C103.359 12.0367 104.034 11.8716 104.781 11.8716C105.296 11.8716 105.767 11.959 106.194 12.1338C106.621 12.3086 106.985 12.5707 107.286 12.9203V8.92965H109.107ZM105 18.2799C105.437 18.2799 105.83 18.1828 106.179 17.9886C106.529 17.7847 106.806 17.4983 107.01 17.1293C107.213 16.7604 107.315 16.3331 107.315 15.8477C107.315 15.3622 107.213 14.935 107.01 14.566C106.806 14.1971 106.529 13.9155 106.179 13.7213C105.83 13.5174 105.437 13.4154 105 13.4154C104.563 13.4154 104.17 13.5174 103.82 13.7213C103.47 13.9155 103.194 14.1971 102.99 14.566C102.786 14.935 102.684 15.3622 102.684 15.8477C102.684 16.3331 102.786 16.7604 102.99 17.1293C103.194 17.4983 103.47 17.7847 103.82 17.9886C104.17 18.1828 104.563 18.2799 105 18.2799Z" fill="white"/>
<path d="M57.9479 26.2141C58.8605 26.2141 59.6567 26.3937 60.3364 26.7529C61.0161 27.1122 61.5404 27.6462 61.9093 28.355C62.288 29.0541 62.4773 29.9037 62.4773 30.9038V36.5547H60.584V33.9331H55.2826V36.5547H53.4184V30.9038C53.4184 29.9037 53.6029 29.0541 53.9718 28.355C54.3505 27.6462 54.8797 27.1122 55.5593 26.7529C56.239 26.3937 57.0352 26.2141 57.9479 26.2141ZM60.584 32.3456V30.729C60.584 29.7872 60.351 29.0784 59.8849 28.6026C59.4188 28.1171 58.7683 27.8744 57.9333 27.8744C57.0983 27.8744 56.4477 28.1171 55.9817 28.6026C55.5156 29.0784 55.2826 29.7872 55.2826 30.729V32.3456H60.584ZM67.5144 36.6566C66.7085 36.6566 66.0774 36.4382 65.6211 36.0012C65.1744 35.5546 64.9511 34.9283 64.9511 34.1225V25.748H66.7716V33.9914C66.7716 34.7681 67.1357 35.1565 67.8639 35.1565C68.1067 35.1565 68.3251 35.108 68.5193 35.0109L68.6067 36.4673C68.2669 36.5935 67.9028 36.6566 67.5144 36.6566ZM77.3186 25.748V36.5547H75.5709V35.5498C75.2699 35.9187 74.8961 36.1954 74.4495 36.3799C74.0126 36.5644 73.5271 36.6566 72.9931 36.6566C72.2454 36.6566 71.5706 36.4916 70.9686 36.1615C70.3764 35.8313 69.9103 35.3653 69.5705 34.7633C69.2306 34.1516 69.0607 33.4525 69.0607 32.666C69.0607 31.8796 69.2306 31.1853 69.5705 30.5833C69.9103 29.9814 70.3764 29.5153 70.9686 29.1852C71.5706 28.8551 72.2454 28.69 72.9931 28.69C73.5077 28.69 73.9786 28.7774 74.4058 28.9521C74.833 29.1269 75.1971 29.3891 75.4981 29.7386V25.748H77.3186ZM73.2115 35.0983C73.6485 35.0983 74.0417 35.0012 74.3912 34.807C74.7408 34.6031 75.0175 34.3166 75.2214 33.9477C75.4253 33.5787 75.5272 33.1515 75.5272 32.666C75.5272 32.1806 75.4253 31.7533 75.2214 31.3844C75.0175 31.0154 74.7408 30.7338 74.3912 30.5397C74.0417 30.3358 73.6485 30.2338 73.2115 30.2338C72.7746 30.2338 72.3814 30.3358 72.0318 30.5397C71.6823 30.7338 71.4056 31.0154 71.2017 31.3844C70.9978 31.7533 70.8958 32.1806 70.8958 32.666C70.8958 33.1515 70.9978 33.5787 71.2017 33.9477C71.4056 34.3166 71.6823 34.6031 72.0318 34.807C72.3814 35.0012 72.7746 35.0983 73.2115 35.0983ZM81.4334 29.9134C81.9577 29.0978 82.8801 28.69 84.2006 28.69V30.4231C84.0452 30.394 83.9045 30.3794 83.7782 30.3794C83.0694 30.3794 82.516 30.5882 82.1179 31.0057C81.7198 31.4135 81.5208 32.0058 81.5208 32.7825V36.5547H79.7002V28.7774H81.4334V29.9134ZM85.745 28.7774H87.5655V36.5547H85.745V28.7774ZM86.6625 27.4957C86.3324 27.4957 86.0557 27.3938 85.8324 27.1899C85.609 26.9763 85.4974 26.7141 85.4974 26.4034C85.4974 26.0927 85.609 25.8354 85.8324 25.6315C86.0557 25.4179 86.3324 25.3111 86.6625 25.3111C86.9926 25.3111 87.2694 25.413 87.4927 25.6169C87.716 25.8111 87.8277 26.0587 87.8277 26.3597C87.8277 26.6801 87.716 26.952 87.4927 27.1753C87.2791 27.3889 87.0024 27.4957 86.6625 27.4957ZM97.5721 25.748V36.5547H95.8243V35.5498C95.5234 35.9187 95.1495 36.1954 94.7029 36.3799C94.266 36.5644 93.7805 36.6566 93.2465 36.6566C92.4988 36.6566 91.824 36.4916 91.222 36.1615C90.6298 35.8313 90.1637 35.3653 89.8239 34.7633C89.484 34.1516 89.3141 33.4525 89.3141 32.666C89.3141 31.8796 89.484 31.1853 89.8239 30.5833C90.1637 29.9814 90.6298 29.5153 91.222 29.1852C91.824 28.8551 92.4988 28.69 93.2465 28.69C93.7611 28.69 94.232 28.7774 94.6592 28.9521C95.0864 29.1269 95.4505 29.3891 95.7515 29.7386V25.748H97.5721ZM93.4649 35.0983C93.9019 35.0983 94.2951 35.0012 94.6446 34.807C94.9942 34.6031 95.2709 34.3166 95.4748 33.9477C95.6787 33.5787 95.7807 33.1515 95.7807 32.666C95.7807 32.1806 95.6787 31.7533 95.4748 31.3844C95.2709 31.0154 94.9942 30.7338 94.6446 30.5397C94.2951 30.3358 93.9019 30.2338 93.4649 30.2338C93.028 30.2338 92.6348 30.3358 92.2852 30.5397C91.9357 30.7338 91.659 31.0154 91.4551 31.3844C91.2512 31.7533 91.1492 32.1806 91.1492 32.666C91.1492 33.1515 91.2512 33.5787 91.4551 33.9477C91.659 34.3166 91.9357 34.6031 92.2852 34.807C92.6348 35.0012 93.028 35.0983 93.4649 35.0983ZM107.673 28.7774V35.375C107.673 38.1131 106.275 39.4821 103.478 39.4821C102.731 39.4821 102.022 39.385 101.352 39.1908C100.682 39.0063 100.128 38.7345 99.6915 38.3752L100.507 37.0062C100.847 37.2878 101.274 37.5111 101.789 37.6761C102.313 37.8509 102.842 37.9383 103.376 37.9383C104.231 37.9383 104.857 37.7441 105.255 37.3557C105.653 36.9673 105.852 36.3751 105.852 35.5789V35.1711C105.541 35.5109 105.163 35.7682 104.716 35.943C104.27 36.1178 103.779 36.2051 103.245 36.2051C102.507 36.2051 101.837 36.0498 101.235 35.7391C100.643 35.4187 100.172 34.972 99.8226 34.3992C99.4827 33.8263 99.3128 33.1709 99.3128 32.433C99.3128 31.6951 99.4827 31.0445 99.8226 30.4814C100.172 29.9085 100.643 29.4668 101.235 29.156C101.837 28.8453 102.507 28.69 103.245 28.69C103.808 28.69 104.318 28.7822 104.774 28.9667C105.24 29.1512 105.629 29.4328 105.94 29.8114V28.7774H107.673ZM103.522 34.6613C104.211 34.6613 104.774 34.4574 105.211 34.0496C105.658 33.6321 105.881 33.0933 105.881 32.433C105.881 31.7825 105.658 31.2533 105.211 30.8455C104.774 30.4377 104.211 30.2338 103.522 30.2338C102.823 30.2338 102.25 30.4377 101.803 30.8455C101.366 31.2533 101.148 31.7825 101.148 32.433C101.148 33.0933 101.366 33.6321 101.803 34.0496C102.25 34.4574 102.823 34.6613 103.522 34.6613ZM113.765 35.1128C114.61 35.1128 115.314 34.8313 115.877 34.2681L116.839 35.3895C116.499 35.8071 116.062 36.1226 115.528 36.3362C114.994 36.5498 114.392 36.6566 113.722 36.6566C112.867 36.6566 112.115 36.4867 111.464 36.1469C110.814 35.8071 110.309 35.3361 109.95 34.7342C109.6 34.1225 109.425 33.4331 109.425 32.666C109.425 31.9087 109.595 31.229 109.935 30.627C110.285 30.0153 110.76 29.5396 111.362 29.1997C111.974 28.8599 112.663 28.69 113.43 28.69C114.159 28.69 114.819 28.8502 115.411 29.1706C116.013 29.4813 116.489 29.9328 116.839 30.5251C117.188 31.1077 117.363 31.7922 117.363 32.5786L111.406 33.7438C111.591 34.1904 111.887 34.5303 112.294 34.7633C112.702 34.9963 113.193 35.1128 113.765 35.1128ZM113.43 30.1464C112.761 30.1464 112.217 30.3649 111.799 30.8018C111.391 31.2387 111.188 31.8262 111.188 32.5641V32.5786L115.586 31.7339C115.46 31.2582 115.202 30.8746 114.814 30.5833C114.435 30.2921 113.974 30.1464 113.43 30.1464Z" fill="white"/>
<path d="M12.1056 40.7556C19.5133 46.369 28.145 45.4281 31.296 44.8784C31.54 44.8361 31.8581 44.7798 32.239 44.6987C39.0882 43.2434 44.2325 39.11 47.9419 34.8039C42.0062 44.5331 30.2826 49.3219 19.5872 46.7284C6.83929 43.6345 -1.9626 30.6635 1.54706 17.6501C5.45983 3.13918 22.0392 -1.6144 32.0615 0.46463C40.1866 2.149 45.5158 8.63276 45.4123 8.76314C45.3124 8.89 40.1348 3.27661 31.8655 1.8671C21.8099 0.147489 13.6996 5.7644 13.0228 6.24364C11.3475 7.44172 5.92212 11.4377 4.10626 18.6826C2.12769 26.5618 5.12329 35.4664 12.1019 40.7556H12.1056Z" fill="#D81B1B"/>
<path d="M44.0064 22.9047C43.5145 23.021 43.8585 24.7335 43.5959 27.32C43.3629 29.6351 42.9228 33.9729 39.8606 36.0942C39.5389 36.3162 37.3791 37.768 35.1194 37.1302C34.7644 37.0315 33.8251 36.7144 32.7673 35.5339C29.7754 32.2004 29.1763 25.6779 29.058 24.1803C32.5122 23.0914 34.9974 20.4909 35.4745 17.4358C35.9294 14.5216 34.3872 12.2628 33.8214 11.5334C30.9182 7.77353 25.4522 7.24849 21.8463 8.15058C19.3833 8.76724 17.7635 9.99352 17.0238 10.5714C14.1428 12.8302 11.7538 16.6535 12.5896 17.5415C12.6007 17.552 12.6487 17.6049 12.7338 17.6472C14.1391 18.3836 16.8759 12.5905 22.3197 10.8357C22.3197 10.8357 26.5062 9.2359 30.9515 11.2127C32.9929 12.1184 33.5588 13.1966 33.6993 13.4962C34.5018 15.1805 33.7252 16.9248 33.4885 17.4569C32.1719 20.4169 28.7769 21.2591 28.2555 21.3824C28.2555 21.3824 27.2754 16.9354 24.535 17.1257C21.7909 17.3159 20.1747 24.6947 20.1747 24.6947C14.8899 27.3059 11.5134 31.0305 11.8536 34.2125C12.0755 36.288 13.3847 37.479 13.3847 37.479C14.276 38.2895 15.881 39.0824 17.2827 38.5961C18.333 38.2331 18.9062 37.2923 19.5423 35.837C20.3227 34.0504 21.299 31.2384 21.691 27.394C21.7465 27.394 25.7554 25.5475 25.7554 25.5475C25.8664 26.2487 26.0661 27.2847 26.4359 28.511C27.501 32.0524 28.7066 36.0625 32.3642 37.8068C35.0603 39.0929 38.3295 38.7828 40.5411 37.6764C42.9487 36.4712 44.4909 34.1244 44.5611 34.0152C44.8977 33.4901 47.0575 30.0861 46.0294 26.2205C45.5745 24.515 44.5168 22.7778 43.999 22.9011L44.0064 22.9047ZM16.9165 36.0801C16.6281 36.362 16.0105 36.961 15.3189 36.8589C14.4498 36.732 13.9579 35.5832 13.8396 35.1886C13.0186 32.4541 18.8618 28.5674 19.5312 28.1269C19.4055 29.5646 18.9025 34.1491 16.9165 36.0801ZM23.0853 23.6588C22.9891 22.429 24.2613 19.402 24.2613 19.402C24.8974 19.9729 25.6334 22.7602 25.6334 22.7602C25.6334 22.7602 23.0372 23.7081 23.089 23.6588H23.0853Z" fill="#D81B1B"/>
</svg>
