<svg width="776" height="104" viewBox="0 0 776 104" fill="none" xmlns="http://www.w3.org/2000/svg">
<path d="M34.4867 10.0078H60.2983C64.3957 10.0078 67.3551 10.9411 69.1817 12.8026C71.0033 14.6691 71.9165 17.2742 71.9165 20.6279C71.9165 23.9816 71.3277 28.2686 70.1598 33.4838C69.0519 38.2349 67.5697 41.9479 65.7082 44.6229C63.8567 47.2979 61.2665 49.1544 57.9428 50.1925C60.3482 50.7115 61.8953 51.9841 62.5741 54.0053C63.2628 56.0315 63.2179 58.7664 62.4343 62.2099L54.9084 93.9903H38.4992L46.0251 61.1519C46.609 58.7963 46.5092 57.2941 45.7257 56.6404C44.9371 55.9916 43.3401 55.6622 40.9346 55.6622L32.1312 93.9903H15.123L34.4867 10.0078ZM48.4605 41.1095C50.8011 41.1095 52.5628 38.5693 53.7506 33.4838C54.2696 31.263 54.5391 29.6011 54.5691 28.4931C54.609 27.3902 54.4144 26.6266 53.9902 26.1975C53.561 25.7732 52.8623 25.5587 51.8941 25.5587H47.9814L44.4481 41.1095H48.4605Z" fill="#FF0202"/>
<path d="M65.7695 93.9903L93.238 10.0078H121.685L110.346 93.9903H94.3959L96.3522 80.3958H86.1912L82.0789 93.9903H65.7695ZM90.583 67.0009H98.2087L104.277 24.281H103.499L90.583 67.0009Z" fill="#FF0202"/>
<path d="M141.415 94.7701C133.8 94.7701 128.739 92.8836 126.224 89.1007C123.709 85.3228 123.429 79.2292 125.385 70.815L127.242 62.6104H143.771L141.335 73.0708C140.347 77.2379 141.196 79.319 143.871 79.319C145.373 79.319 146.531 78.8799 147.344 78.0015C148.153 77.1232 148.787 75.6459 149.241 73.5698C149.889 70.83 150.084 68.5692 149.82 66.7825C149.565 64.9859 149.081 63.4837 148.362 62.271C147.644 61.0633 146.271 59.1868 144.25 56.6416L138.68 49.4151C134.379 43.9454 132.981 37.8867 134.488 31.2292C136.11 24.0577 139.005 18.6029 143.172 14.8599C147.349 11.1069 152.599 9.23047 158.923 9.23047C166.478 9.23047 171.464 11.2417 173.874 15.2592C176.28 19.2666 176.48 25.5349 174.473 34.0639H157.365L158.623 28.2947C158.888 27.1918 158.788 26.3134 158.324 25.6597C157.869 25.0109 157.091 24.6815 155.988 24.6815C154.68 24.6815 153.602 25.0408 152.754 25.7595C151.916 26.4781 151.362 27.4563 151.097 28.694C150.443 31.4239 151.357 34.2585 153.832 37.198L161.458 46.5804C163.224 48.7913 164.632 50.8923 165.67 52.8886C166.708 54.8749 167.372 57.2205 167.666 59.9354C167.956 62.6403 167.686 65.8443 166.848 69.5573C164.891 77.8368 161.902 84.1101 157.884 88.382C153.877 92.6441 148.387 94.7701 141.415 94.7701Z" fill="#FF0202"/>
<path d="M172.992 93.9903L192.356 10.0078H209.065L202.138 40.0315H210.043L216.99 10.0078H233.698L214.355 93.9903H197.626L206.429 55.8618H198.504L189.721 93.9903H172.992Z" fill="#FF0202"/>
<path d="M225.793 93.9903L253.261 10.0078H281.708L270.369 93.9903H254.419L256.376 80.3958H246.215L242.102 93.9903H225.793ZM250.606 67.0009H258.232L264.301 24.281H263.522L250.606 67.0009Z" fill="#FF0202"/>
<path d="M301.057 10.0078H324.214C330.212 10.0078 334.34 11.6747 336.59 14.9985C338.836 18.3272 339.245 23.253 337.808 29.7708L328.925 69.0571C327.033 77.3366 324.144 83.5649 320.261 87.742C316.388 91.9092 311.058 93.9903 304.271 93.9903H281.693L301.057 10.0078ZM304.97 79.1382C308.029 79.1382 309.92 77.636 310.639 74.6266L320.6 31.3278C321.065 29.4414 321.244 28.024 321.139 27.0758C321.045 26.1326 320.65 25.4988 319.962 25.1794C319.283 24.85 318.13 24.6803 316.508 24.6803H314.652L302.035 79.1382H304.97Z" fill="#FF0202"/>
<path d="M363.037 93.9903L390.506 10.0078H418.952L407.614 93.9903H391.663L393.62 80.3958H383.459L379.347 93.9903H363.037ZM387.851 67.0009H395.476L401.545 24.281H400.766L387.851 67.0009Z" fill="#FF0202"/>
<path d="M418.939 93.9903L438.303 10.0078H455.112L439.082 79.7171H456.389L453.055 93.9903H418.939Z" fill="#FF0202"/>
<path d="M483.368 10.0078H506.524C512.523 10.0078 516.65 11.6747 518.901 14.9985C521.147 18.3272 521.556 23.253 520.119 29.7708L511.235 69.0571C509.344 77.3366 506.454 83.5649 502.572 87.742C498.699 91.9092 493.369 93.9903 486.582 93.9903H464.004L483.368 10.0078ZM487.28 79.1382C490.34 79.1382 492.231 77.636 492.95 74.6266L502.911 31.3278C503.375 29.4414 503.555 28.024 503.45 27.0758C503.355 26.1326 502.961 25.4988 502.272 25.1794C501.593 24.85 500.441 24.6803 498.819 24.6803H496.962L484.346 79.1382H487.28Z" fill="#FF0202"/>
<path d="M537.815 10.0078H563.626C567.724 10.0078 570.683 10.9411 572.51 12.8026C574.331 14.6691 575.245 17.2742 575.245 20.6279C575.245 23.9816 574.656 28.2686 573.488 33.4838C572.38 38.2349 570.898 41.9479 569.036 44.6229C567.185 47.2979 564.595 49.1544 561.271 50.1925C563.676 50.7115 565.223 51.9841 565.902 54.0053C566.591 56.0315 566.546 58.7664 565.762 62.2099L558.237 93.9903H541.827L549.353 61.1519C549.937 58.7963 549.837 57.2941 549.054 56.6404C548.265 55.9916 546.668 55.6622 544.263 55.6622L535.459 93.9903H518.451L537.815 10.0078ZM551.789 41.1095C554.129 41.1095 555.891 38.5693 557.079 33.4838C557.598 31.263 557.867 29.6011 557.897 28.4931C557.937 27.3902 557.742 26.6266 557.318 26.1975C556.889 25.7732 556.19 25.5587 555.222 25.5587H551.31L547.776 41.1095H551.789Z" fill="#FF0202"/>
<path d="M570.559 93.9903L589.922 10.0078H606.152L586.788 93.9903H570.559Z" fill="#FF0202"/>
<path d="M619.147 10.0078H642.303C648.302 10.0078 652.429 11.6747 654.68 14.9985C656.926 18.3272 657.335 23.253 655.898 29.7708L647.015 69.0571C645.123 77.3366 642.234 83.5649 638.351 87.742C634.478 91.9092 629.148 93.9903 622.361 93.9903H599.783L619.147 10.0078ZM623.06 79.1382C626.119 79.1382 628.01 77.636 628.729 74.6266L638.69 31.3278C639.154 29.4414 639.334 28.024 639.229 27.0758C639.134 26.1326 638.74 25.4988 638.051 25.1794C637.373 24.85 636.22 24.6803 634.598 24.6803H632.741L620.125 79.1382H623.06Z" fill="#FF0202"/>
<path d="M671.339 94.7701C665.28 94.7701 661.263 92.6441 659.282 88.382C657.285 84.1101 657.3 77.6372 659.322 68.9585L667.626 32.7863C669.448 25.0408 672.542 19.1818 676.909 15.1993C681.27 11.2217 686.88 9.23047 693.737 9.23047C699.272 9.23047 703.309 10.3434 705.854 12.5642C708.394 14.7751 709.757 18.004 709.947 22.2461C710.146 26.4781 709.497 31.9179 708.01 38.5555H691.581L693.338 31.0296C693.787 29.0234 693.867 27.4663 693.577 26.3584C693.283 25.2404 692.424 24.6815 691.002 24.6815C687.808 24.6815 685.717 26.7676 684.734 30.9298L675.351 71.6135C674.763 74.1587 674.633 76.0801 674.952 77.3827C675.282 78.6752 676.26 79.319 677.887 79.319C679.524 79.319 680.826 78.6752 681.799 77.3827C682.783 76.0801 683.566 74.1587 684.155 71.6135L686.89 59.5761H682.398L685.712 45.1032H706.234L694.995 93.9915H688.247L686.99 86.9447C682.807 92.1649 677.592 94.7701 671.339 94.7701Z" fill="#FF0202"/>
<path d="M707.896 93.9903L727.26 10.0078H760.877L757.164 26.2374H740.655L736.842 42.5668H752.673L749.059 58.3971H733.229L728.717 77.6609H746.324L742.611 93.9903H707.896Z" fill="#FF0202"/>
</svg>
