<svg width="330" height="65" viewBox="0 0 330 65" fill="none" xmlns="http://www.w3.org/2000/svg">
<mask id="mask0_436_665" style="mask-type:luminance" maskUnits="userSpaceOnUse" x="0" y="0" width="330" height="65">
<path d="M0.3125 0.787109H329.934V64.9867H0.3125V0.787109Z" fill="white"/>
</mask>
<g mask="url(#mask0_436_665)">
<path fill-rule="evenodd" clip-rule="evenodd" d="M14.2064 0.806641H330.384L316.49 64.9963H0.3125L14.2064 0.806641Z" fill="#FF0202"/>
</g>
<mask id="mask1_436_665" style="mask-type:luminance" maskUnits="userSpaceOnUse" x="262" y="19" width="28" height="25">
<path d="M262.959 19.5527H289.789V43.5078H262.959V19.5527Z" fill="white"/>
</mask>
<g mask="url(#mask1_436_665)">
<path fill-rule="evenodd" clip-rule="evenodd" d="M289.645 31.5292L263.109 43.5017L268.3 19.5566L289.645 31.5292Z" fill="white"/>
</g>
<path d="M47.0042 44.0763C45.1926 44.0763 43.4409 43.7968 41.754 43.2378C40.0772 42.6789 38.7796 41.9752 37.8613 41.1218L39.3984 38.327C40.3267 39.1804 41.4995 39.8592 42.9119 40.3632C44.3342 40.8723 45.8064 41.1218 47.3236 41.1218C49.3198 41.1218 50.9168 40.7575 52.1146 40.0239C53.3124 39.2952 53.9112 38.2771 53.9112 36.9696C53.9112 36.2659 53.6767 35.687 53.2125 35.2328C52.7434 34.7687 52.1745 34.3944 51.4958 34.1149C50.827 33.8355 49.8788 33.5111 48.6411 33.1368C47.084 32.6726 45.8264 32.2335 44.8682 31.8192C43.92 31.395 43.1015 30.7712 42.4128 29.9428C41.7341 29.1193 41.3947 28.0363 41.3947 26.6889C41.3947 25.1468 41.8189 23.8093 42.6723 22.6764C43.5357 21.5335 44.7334 20.6552 46.2656 20.0413C47.7927 19.4325 49.5494 19.123 51.5357 19.123C53.0379 19.123 54.4702 19.3027 55.8276 19.662C57.1951 20.0214 58.3828 20.5304 59.381 21.1792L57.9836 24.0338C57.0753 23.3851 56.0572 22.896 54.9293 22.5766C53.7964 22.2472 52.6037 22.0775 51.356 22.0775C49.3598 22.0775 47.7678 22.4718 46.585 23.2553C45.3972 24.0288 44.8083 25.0669 44.8083 26.3695C44.8083 27.0881 45.0479 27.697 45.527 28.1861C46.0061 28.6652 46.595 29.0444 47.3036 29.3239C48.0073 29.6034 48.9805 29.9328 50.2182 30.3021C51.7453 30.7712 52.978 31.2104 53.9112 31.6196C54.8545 32.0189 55.658 32.6177 56.3267 33.4162C56.9905 34.2048 57.3248 35.2229 57.3248 36.4705C57.3248 38.0276 56.8857 39.3801 56.0073 40.5229C55.1389 41.6558 53.9312 42.5341 52.3741 43.158C50.817 43.7718 49.0254 44.0763 47.0042 44.0763Z" fill="white"/>
<path d="M71.9128 44.0761C69.0382 44.0761 66.7874 43.3574 65.1655 41.9201C63.5535 40.4728 62.75 38.4666 62.75 35.9114C62.75 35.1528 62.8398 34.2745 63.0295 33.2763L65.7843 19.4023H69.2578L66.483 33.2364C66.3083 34.0249 66.2235 34.7885 66.2235 35.5321C66.2235 37.3287 66.7325 38.6862 67.7606 39.6045C68.7837 40.5227 70.2759 40.9819 72.2322 40.9819C74.4131 40.9819 76.1549 40.358 77.4624 39.1054C78.7799 37.8428 79.7032 35.8715 80.2372 33.1965L82.992 19.4023H86.4056L83.6308 33.436C82.9122 36.9794 81.5647 39.6394 79.5984 41.4211C77.6421 43.1927 75.0769 44.0761 71.9128 44.0761Z" fill="white"/>
<path d="M107.556 31.2202C108.644 31.5945 109.493 32.1983 110.092 33.0368C110.701 33.8652 111.01 34.9083 111.01 36.1709C111.01 38.6363 110.057 40.5227 108.155 41.8403C106.264 43.1478 103.684 43.7966 100.41 43.7966H88.6719L93.5427 19.4023H104.342C106.818 19.4023 108.719 19.8615 110.052 20.7798C111.379 21.698 112.048 23.0305 112.048 24.7723C112.048 26.3443 111.634 27.6818 110.81 28.7847C109.982 29.8927 108.899 30.7012 107.556 31.2202ZM96.4373 22.2171L94.8802 30.0224H102.027C103.993 30.0224 105.55 29.6232 106.698 28.8247C107.856 28.0262 108.435 26.8634 108.435 25.3312C108.435 24.2832 108.021 23.5047 107.197 22.9956C106.369 22.4766 105.181 22.2171 103.624 22.2171H96.4373ZM100.649 40.9819C102.855 40.9819 104.562 40.5726 105.76 39.7442C106.958 38.9207 107.556 37.738 107.556 36.1909C107.556 34.9931 107.127 34.1447 106.279 33.6357C105.44 33.1166 104.168 32.8571 102.466 32.8571H94.3213L92.7043 40.9819H100.649Z" fill="white"/>
<path d="M122.571 44.0763C120.759 44.0763 119.007 43.7968 117.32 43.2378C115.644 42.6789 114.346 41.9752 113.428 41.1218L114.965 38.327C115.893 39.1804 117.066 39.8592 118.478 40.3632C119.901 40.8723 121.373 41.1218 122.89 41.1218C124.886 41.1218 126.483 40.7575 127.681 40.0239C128.879 39.2952 129.478 38.2771 129.478 36.9696C129.478 36.2659 129.243 35.687 128.779 35.2328C128.31 34.7687 127.741 34.3944 127.062 34.1149C126.393 33.8355 125.445 33.5111 124.208 33.1368C122.65 32.6726 121.393 32.2335 120.435 31.8192C119.486 31.395 118.668 30.7712 117.979 29.9428C117.3 29.1193 116.961 28.0363 116.961 26.6889C116.961 25.1468 117.385 23.8093 118.239 22.6764C119.102 21.5335 120.3 20.6552 121.832 20.0413C123.359 19.4325 125.116 19.123 127.102 19.123C128.604 19.123 130.037 19.3027 131.394 19.662C132.761 20.0214 133.949 20.5304 134.947 21.1792L133.55 24.0338C132.642 23.3851 131.624 22.896 130.496 22.5766C129.363 22.2472 128.17 22.0775 126.922 22.0775C124.926 22.0775 123.334 22.4718 122.151 23.2553C120.964 24.0288 120.375 25.0669 120.375 26.3695C120.375 27.0881 120.614 27.697 121.093 28.1861C121.572 28.6652 122.161 29.0444 122.87 29.3239C123.574 29.6034 124.547 29.9328 125.785 30.3021C127.312 30.7712 128.544 31.2104 129.478 31.6196C130.421 32.0189 131.224 32.6177 131.893 33.4162C132.557 34.2048 132.891 35.2229 132.891 36.4705C132.891 38.0276 132.452 39.3801 131.574 40.5229C130.705 41.6558 129.498 42.5341 127.941 43.158C126.383 43.7718 124.592 44.0763 122.571 44.0763Z" fill="white"/>
<path d="M148.599 44.0763C146.174 44.0763 144.093 43.6521 142.351 42.7987C140.604 41.9353 139.267 40.7325 138.338 39.1854C137.42 37.6433 136.961 35.8467 136.961 33.7955C136.961 31.0806 137.57 28.6053 138.797 26.3695C140.035 24.1337 141.782 22.372 144.048 21.0794C146.308 19.7768 148.928 19.123 151.913 19.123C153.934 19.123 155.726 19.4574 157.283 20.1212C158.84 20.7749 160.038 21.7082 160.876 22.9159L158.361 25.0719C156.894 23.1705 154.668 22.2172 151.673 22.2172C149.408 22.2172 147.426 22.7313 145.725 23.7544C144.033 24.7824 142.73 26.1599 141.812 27.8866C140.894 29.6184 140.434 31.5148 140.434 33.5759C140.434 35.8417 141.158 37.6433 142.61 38.9858C144.073 40.3183 146.149 40.9821 148.839 40.9821C151.833 40.9821 154.293 40.0189 156.225 38.0875L158.261 40.3832C157.143 41.5959 155.751 42.5142 154.089 43.138C152.422 43.7668 150.595 44.0763 148.599 44.0763Z" fill="white"/>
<path d="M184.826 26.5489C184.826 28.9445 184.187 30.9507 182.91 32.5577C181.632 34.1547 179.835 35.2526 177.52 35.8515L181.971 43.7966H178.278L174.026 36.3306H166.84L165.383 43.7966H161.869L166.74 19.4023H175.843C178.703 19.4023 180.913 20.0312 182.471 21.2788C184.038 22.5165 184.826 24.2732 184.826 26.5489ZM173.467 33.3761C175.983 33.3761 177.924 32.8172 179.296 31.6993C180.664 30.5814 181.353 28.9644 181.353 26.8484C181.353 25.3861 180.854 24.2882 179.855 23.5546C178.857 22.811 177.41 22.4367 175.524 22.4367H169.635L167.439 33.3761H173.467Z" fill="white"/>
<path d="M192.068 19.4023H195.562L190.671 43.7966H187.197L192.068 19.4023Z" fill="white"/>
<path d="M216.883 31.2202C217.971 31.5945 218.819 32.1983 219.418 33.0368C220.027 33.8652 220.336 34.9083 220.336 36.1709C220.336 38.6363 219.383 40.5227 217.482 41.8403C215.59 43.1478 213.01 43.7966 209.736 43.7966H197.998L202.869 19.4023H213.669C216.144 19.4023 218.045 19.8615 219.378 20.7798C220.705 21.698 221.374 23.0305 221.374 24.7723C221.374 26.3443 220.96 27.6818 220.137 28.7847C219.308 29.8927 218.225 30.7012 216.883 31.2202ZM205.763 22.2171L204.206 30.0224H211.353C213.319 30.0224 214.876 29.6232 216.024 28.8247C217.182 28.0262 217.761 26.8634 217.761 25.3312C217.761 24.2832 217.347 23.5047 216.523 22.9956C215.695 22.4766 214.507 22.2171 212.95 22.2171H205.763ZM209.976 40.9819C212.181 40.9819 213.888 40.5726 215.086 39.7442C216.284 38.9207 216.883 37.738 216.883 36.1909C216.883 34.9931 216.453 34.1447 215.605 33.6357C214.767 33.1166 213.494 32.8571 211.792 32.8571H203.647L202.03 40.9819H209.976Z" fill="white"/>
<path d="M232.097 22.4367L230.599 29.9226H242.876L242.278 32.897H230.02L228.443 40.7623H242.697L242.118 43.7966H224.371L229.242 19.4023H246.47L245.871 22.4367H232.097Z" fill="white"/>
</svg>
