<svg width="69" height="57" viewBox="0 0 69 57" fill="none" xmlns="http://www.w3.org/2000/svg">
<rect x="19.6484" y="17.2148" width="30.7592" height="21.6827" fill="white"/>
<path d="M34.9581 9.48242C36.4615 9.48948 40.2229 9.52007 44.2207 9.6542L45.6397 9.70597C49.6629 9.86363 53.6833 10.1366 55.6794 10.6002C58.3399 11.2261 60.4289 13.0475 61.1356 15.3583C62.2618 19.0292 62.4025 26.1875 62.4194 27.9218L62.4222 28.2795V28.689C62.4025 30.4232 62.2618 37.5839 61.1356 41.2525C60.4205 43.5704 58.3287 45.3941 55.6794 46.0106C53.6833 46.4742 49.6629 46.7471 45.6397 46.9048L44.2207 46.9589C40.2229 47.0907 36.4615 47.1236 34.9581 47.1284L34.2965 47.1307H33.5785C30.3971 47.1142 17.0916 46.9942 12.8572 46.0106C10.1995 45.3847 8.10767 43.5633 7.40101 41.2525C6.27485 37.5816 6.13408 30.4232 6.11719 28.689V27.9218C6.13408 26.1875 6.27485 19.0269 7.40101 15.3583C8.11612 13.0404 10.208 11.2167 12.8601 10.6025C17.0916 9.61655 30.4 9.49654 33.5814 9.48242H34.9581ZM28.6375 20.0717V36.5438L45.5299 28.3077L28.6375 20.0717Z" fill="#D81B1B"/>
</svg>
